<svg xmlns="http://www.w3.org/2000/svg" viewBox="0 0 109.18 109.18"><defs><style>.cls-1,.cls-3{fill:none;}.cls-2,.cls-4{fill:#fff;}.cls-2,.cls-3,.cls-4{stroke:#000;stroke-miterlimit:10;}.cls-2{stroke-width:2px;}.cls-3,.cls-4{stroke-linecap:round;stroke-width:0.75px;}</style></defs><title>parcel</title><g id="Capa_1" data-name="Capa 1"><circle class="cls-1" cx="54.59" cy="54.59" r="54.59"/><path class="cls-2" d="M178,186.66v42.57A10.06,10.06,0,0,0,188.36,239h60.5a10.06,10.06,0,0,0,10.36-9.76V186.66a10.06,10.06,0,0,0-10.36-9.76H188.43A10.06,10.06,0,0,0,178,186.6Z" transform="translate(-164.41 -153.35)"/><path class="cls-2" d="M178,192.33l38.28,15a7.61,7.61,0,0,0,5.44,0l38.28-15" transform="translate(-164.41 -153.35)"/><line class="cls-3" x1="16.47" y1="35.98" x2="20.31" y2="37.58"/><line class="cls-3" x1="24.04" y1="38.91" x2="27.9" y2="40.5"/><line class="cls-3" x1="31.6" y1="41.78" x2="35.45" y2="43.4"/><line class="cls-3" x1="38.89" y1="44.89" x2="42.73" y2="46.48"/><line class="cls-3" x1="63.88" y1="47.69" x2="59.99" y2="49.21"/><line class="cls-3" x1="71.24" y1="44.71" x2="67.35" y2="46.25"/><line class="cls-3" x1="78.31" y1="41.82" x2="74.44" y2="43.34"/><line class="cls-3" x1="85.57" y1="39.24" x2="81.68" y2="40.79"/><line class="cls-3" x1="92.84" y1="36.23" x2="88.97" y2="37.75"/><line class="cls-3" x1="45.77" y1="47.65" x2="49.62" y2="49.25"/><line class="cls-3" x1="28.28" y1="82.98" x2="33.46" y2="82.98"/><path class="cls-4" d="M181.16,226.93a8.61,8.61,0,0,0,2.4,7.89,9.39,9.39,0,0,0,6.43,2.26" transform="translate(-164.41 -153.35)"/><line class="cls-3" x1="36.92" y1="82.98" x2="40.38" y2="82.98"/></g></svg>