<svg xmlns="http://www.w3.org/2000/svg" viewBox="0 0 52.83 52.83"><defs><style>.cls-1{fill:none;}</style></defs><title>twitter</title><g id="Capa_2" data-name="Capa 2"><circle class="cls-1" cx="26.42" cy="26.42" r="26.42"/></g><g id="Capa_1" data-name="Capa 1"><path d="M45.43,8,44,8.81a15.63,15.63,0,0,1-4.71,1.82,8.77,8.77,0,0,0-14.91,6.28A8.16,8.16,0,0,0,24.52,18,22.53,22.53,0,0,1,8.88,9.85l-.57-.7-.46.78a8.74,8.74,0,0,0,1,10.19,7.31,7.31,0,0,1-1.32-.54l-.93-.52v1.16a8.75,8.75,0,0,0,4.47,7.62,8.08,8.08,0,0,1-.86-.08l-1-.2.32,1a8.72,8.72,0,0,0,6.59,5.82,15.68,15.68,0,0,1-8.51,2.54,16.47,16.47,0,0,1-1.87-.11L3,36.48,5.29,38a23.8,23.8,0,0,0,12.85,3.76,23,23,0,0,0,17.72-7.78A24.71,24.71,0,0,0,42,17.86c0-.26,0-.52,0-.78a17.2,17.2,0,0,0,4-4.16l1.2-1.79-2,.87a15.29,15.29,0,0,1-2.27.8,8.62,8.62,0,0,0,2-3.27ZM33.18,9.37a7.55,7.55,0,0,1,5.51,2.38l.24.25.34-.06a17.4,17.4,0,0,0,3.65-1.22,7,7,0,0,1-2.4,2.56l-.5.3.47.94.44,0a15.81,15.81,0,0,0,2.62-.55A16.5,16.5,0,0,1,41,16.3l-.27.19v.34c0,.34,0,.69,0,1a23.55,23.55,0,0,1-5.82,15.25,21.75,21.75,0,0,1-16.79,7.36,22.5,22.5,0,0,1-10-2.35,17.09,17.09,0,0,0,9.92-3.58l1.38-1.09-1.75,0a7.47,7.47,0,0,1-6.59-4.32c.16,0,.32,0,.48,0a8.89,8.89,0,0,0,2.32-.31l2.54-.7-2.58-.52A7.45,7.45,0,0,1,8,21.12a8.76,8.76,0,0,0,2.89.65l2.19.07-1.82-1.21a7.56,7.56,0,0,1-3.36-6.28,7.44,7.44,0,0,1,.7-3A23.72,23.72,0,0,0,25.2,19.4l.82,0-.18-.81a7.54,7.54,0,0,1,7.34-9.26Zm0,1.26a.63.63,0,0,0-.63.62.63.63,0,1,0,1.25,0A.62.62,0,0,0,33.13,10.63Zm-2.83.75a.61.61,0,0,0-.3.08.63.63,0,0,0-.23.85.63.63,0,0,0,.86.24.69.69,0,0,0,.29-.38.61.61,0,0,0-.07-.48A.61.61,0,0,0,30.3,11.38Zm-2.08,2.06a.62.62,0,0,0-.57.78.62.62,0,1,0,.91-.7A.57.57,0,0,0,28.22,13.44Zm-.72,2.81a.63.63,0,0,0,0,1.25.63.63,0,1,0,0-1.25ZM15,21.88a.62.62,0,0,0-.62.62.63.63,0,0,0,.62.63.64.64,0,0,0,.63-.63A.63.63,0,0,0,15,21.88Zm2.5.62a.63.63,0,0,0,0,1.25.63.63,0,1,0,0-1.25Zm2.5.63a.62.62,0,0,0-.62.62.63.63,0,0,0,.62.63.64.64,0,0,0,.63-.63A.63.63,0,0,0,20,23.13ZM18.13,27.5a.63.63,0,1,0,.62.63A.63.63,0,0,0,18.13,27.5Zm2.5,0a.63.63,0,1,0,.62.63A.63.63,0,0,0,20.63,27.5Zm.62,4.38a.62.62,0,0,0-.62.62.63.63,0,0,0,.62.63.64.64,0,0,0,.63-.63A.63.63,0,0,0,21.25,31.88Z" transform="translate(1.34 1.42)"/></g></svg>