<svg xmlns="http://www.w3.org/2000/svg" viewBox="0 0 109.18 109.18"><defs><style>.cls-1,.cls-3{fill:none}.cls-2,.cls-4{fill:#fff}.cls-2,.cls-3,.cls-4{stroke:#000;stroke-miterlimit:10}.cls-2{stroke-width:2px}.cls-3,.cls-4{stroke-linecap:round;stroke-width:.75px}</style></defs><title>parcel</title><g id="Capa_1" data-name="Capa 1"><circle cx="54.59" cy="54.59" r="54.59" class="cls-1"/><path d="M178,186.66v42.57A10.06,10.06,0,0,0,188.36,239h60.5a10.06,10.06,0,0,0,10.36-9.76V186.66a10.06,10.06,0,0,0-10.36-9.76H188.43A10.06,10.06,0,0,0,178,186.6Z" class="cls-2" transform="translate(-164.41 -153.35)"/><path d="M178,192.33l38.28,15a7.61,7.61,0,0,0,5.44,0l38.28-15" class="cls-2" transform="translate(-164.41 -153.35)"/><line x1="16.47" x2="20.31" y1="35.98" y2="37.58" class="cls-3"/><line x1="24.04" x2="27.9" y1="38.91" y2="40.5" class="cls-3"/><line x1="31.6" x2="35.45" y1="41.78" y2="43.4" class="cls-3"/><line x1="38.89" x2="42.73" y1="44.89" y2="46.48" class="cls-3"/><line x1="63.88" x2="59.99" y1="47.69" y2="49.21" class="cls-3"/><line x1="71.24" x2="67.35" y1="44.71" y2="46.25" class="cls-3"/><line x1="78.31" x2="74.44" y1="41.82" y2="43.34" class="cls-3"/><line x1="85.57" x2="81.68" y1="39.24" y2="40.79" class="cls-3"/><line x1="92.84" x2="88.97" y1="36.23" y2="37.75" class="cls-3"/><line x1="45.77" x2="49.62" y1="47.65" y2="49.25" class="cls-3"/><line x1="28.28" x2="33.46" y1="82.98" y2="82.98" class="cls-3"/><path d="M181.16,226.93a8.61,8.61,0,0,0,2.4,7.89,9.39,9.39,0,0,0,6.43,2.26" class="cls-4" transform="translate(-164.41 -153.35)"/><line x1="36.92" x2="40.38" y1="82.98" y2="82.98" class="cls-3"/></g></svg>